<?xml version="1.0" standalone="no"?>
<!DOCTYPE svg PUBLIC "-//W3C//DTD SVG 20010904//EN"
 "http://www.w3.org/TR/2001/REC-SVG-20010904/DTD/svg10.dtd">
<svg version="1.0" xmlns="http://www.w3.org/2000/svg"
 width="512.000000pt" height="512.000000pt" viewBox="0 0 512.000000 512.000000"
 preserveAspectRatio="xMidYMid meet">

<g transform="translate(0.000000,512.000000) scale(0.100000,-0.100000)"
fill="##f0f4f8" stroke="none">
<path d="M2467 5110 c-91 -23 -184 -88 -237 -165 -54 -79 -70 -148 -70 -310 0
-80 -1 -145 -2 -145 -2 0 -32 9 -66 20 -82 26 -166 25 -244 -1 -114 -38 -188
-106 -242 -219 l-31 -65 -3 -577 -3 -576 -57 29 c-74 38 -191 63 -257 54 -109
-14 -203 -83 -247 -179 l-23 -51 -3 -695 c-3 -697 1 -821 33 -975 83 -402 337
-773 685 -998 629 -407 1448 -321 1975 208 216 217 370 500 430 790 33 162 36
274 33 1425 -3 1070 -4 1148 -21 1190 -43 111 -132 200 -240 243 -75 30 -214
30 -279 0 l-48 -22 0 144 c0 114 -4 156 -20 207 -37 119 -133 221 -250 264
-66 24 -201 23 -266 -3 l-52 -20 -4 69 c-10 140 -101 268 -234 330 -71 33
-186 46 -257 28z m183 -229 c19 -10 49 -37 65 -60 l30 -43 5 -1084 5 -1084 28
-27 c39 -40 105 -40 144 0 l28 27 5 888 5 888 28 42 c76 115 249 109 319 -12
l23 -41 5 -882 5 -883 26 -25 c51 -51 145 -34 169 31 6 15 10 249 10 592 0
532 2 570 19 608 19 43 68 86 110 99 83 25 179 -12 221 -87 l25 -43 0 -1170
c0 -1086 -1 -1177 -18 -1265 -108 -570 -522 -993 -1087 -1111 -147 -30 -372
-31 -518 0 -498 104 -879 441 -1037 914 -69 208 -69 211 -70 1015 l0 724 29
25 c27 23 36 25 93 20 74 -6 135 -37 186 -97 66 -77 67 -87 67 -622 l0 -480
34 -34 c24 -24 43 -34 65 -34 41 0 84 22 99 52 9 18 13 305 15 1238 2 1175 3
1216 21 1254 69 139 272 134 337 -9 17 -38 19 -85 19 -810 0 -849 -4 -797 62
-831 42 -22 90 -11 122 27 l26 31 0 1056 c0 713 4 1069 11 1095 6 21 27 55 48
76 61 61 141 72 221 32z"/>
</g>
</svg>
